<svg xmlns="http://www.w3.org/2000/svg" width="346.667" height="346.667" preserveAspectRatio="xMidYMid meet" version="1.0" viewBox="0 0 260 260"><metadata>Created by potrace 1.14, written by Peter Selinger 2001-2017</metadata><g fill="#000" stroke="none"><path d="M372 1798 c-7 -7 -12 -33 -12 -58 0 -25 5 -51 12 -58 17 -17 1933 -17 1944 0 11 17 12 90 2 111 -8 16 -64 17 -971 17 -736 0 -966 -3 -975 -12z" transform="translate(0.000000,260.000000) scale(0.100000,-0.100000)"/><path d="M372 1318 c-7 -7 -12 -33 -12 -58 0 -25 5 -51 12 -58 15 -15 1302 -17 1342 -2 22 8 25 15 24 57 0 26 -5 54 -10 61 -15 17 -1338 18 -1356 0z" transform="translate(0.000000,260.000000) scale(0.100000,-0.100000)"/><path d="M372 838 c-7 -7 -12 -33 -12 -58 0 -25 5 -51 12 -58 15 -15 1302 -17 1342 -2 22 8 25 15 24 57 0 26 -5 54 -10 61 -15 17 -1338 18 -1356 0z" transform="translate(0.000000,260.000000) scale(0.100000,-0.100000)"/></g></svg>